{"title":"Gilles Grangier-Gabin Audiard-Les Vieux De La Vieille-1960.avi","uid":7846937,"size":677220352,"categoryP":"video","categoryS":"movies","magnet":"?xt=urn:btih:aee2cbf36a76fe33fbb12326b0975f5cdb580aaf&amp;dn=Gilles+Grangier-Gabin+Audiard-Les+Vieux+De+La+Vieille-1960.avi&amp;tr=udp%3A%2F%2Ftracker.openbittorrent.com%3A80&amp;tr=udp%3A%2F%2Fopen.demonii.com%3A1337&amp;tr=udp%3A%2F%2Ftracker.coppersurfer.tk%3A6969&amp;tr=udp%3A%2F%2Fexodus.desync.com%3A6969","seeders":0,"leechers":1,"uploader":"Bonie75","files":-1,"time":1353498417,"description":"FrancaisAudiardGilles Grangier-Gabin Audiard-Les Vieux De La Vieille-1960.avi\nFormat                                   : AVI\nFormat/Info                              : Audio Video Interleave\nFile size                                : 646 MiB\nDuration                                 : 1h 25mn\nOverall bit rate                         : 1 052 Kbps\nWriting application                      : Nandub v1.0rc2\nWriting library                          : Nandub build 1853/release\n\nVideo\nID                                       : 0\nFormat                                   : MPEG-4 Visual\nCodec ID                                 : DIV3\nCodec ID/Hint                            : DivX 3 Low\nDuration                                 : 1h 25mn\nBit rate                                 : 912 Kbps\nWidth                                    : 640 pixels\nHeight                                   : 384 pixels\nDisplay aspect ratio                     : 1.667\nFrame rate                               : 25.000 fps\nColor space                              : YUV\nChroma subsampling                       : 4:2:0\nBit depth                                : 8 bits\nCompression mode                         : Lossy\nBits/(Pixel*Frame)                       : 0.148\nStream size                              : 560 MiB (87%)\n\nAudio\nID                                       : 1\nFormat                                   : MPEG Audio\nFormat version                           : Version 1\nFormat profile                           : Layer 3\nMode                                     : Joint stereo\nMode extension                           : MS Stereo\nCodec ID                                 : 55\nCodec ID/Hint                            : MP3\nDuration                                 : 1h 25mn\nBit rate mode                            : Constant\nBit rate                                 : 128 Kbps\nChannel(s)                               : 2 channels\nSampling rate                            : 44.1 KHz\nCompression mode                         : Lossy\nStream size                              : 78.6 MiB (12%)\nAlignment                                : Aligned on interleaves\nInterleave, duration                     : 26 ms (0.65 video frame)\nInterleave, preload duration             : 496 ms\nWriting library                          : LAME3.88 (beta)\n","torrent":{"xt":"urn:btih:aee2cbf36a76fe33fbb12326b0975f5cdb580aaf","amp;dn":"Gilles+Grangier-Gabin+Audiard-Les+Vieux+De+La+Vieille-1960.avi","amp;tr":["udp%3A%2F%2Ftracker.openbittorrent.com%3A80","udp%3A%2F%2Fopen.demonii.com%3A1337","udp%3A%2F%2Ftracker.coppersurfer.tk%3A6969","udp%3A%2F%2Fexodus.desync.com%3A6969"],"infoHash":"aee2cbf36a76fe33fbb12326b0975f5cdb580aaf","infoHashBuffer":{"type":"Buffer","data":[174,226,203,243,106,118,254,51,251,177,35,38,176,151,95,92,219,88,10,175]},"announce":[],"urlList":[]}}